<svg width="180" height="48" viewBox="0 0 180 48" fill="none" xmlns="http://www.w3.org/2000/svg">
<mask id="mask0_926:3043" style="mask-type:alpha" maskUnits="userSpaceOnUse" x="0" y="24" width="46" height="21">
<path d="M0 24.5917V44.7254H45.6966V24.5917H0H0Z" fill="white"/>
</mask>
<g mask="url(#mask0_926:3043)">
<path fill-rule="evenodd" clip-rule="evenodd" d="M17.8439 31.5224C17.8439 31.5224 35.5747 25.923 36.9825 33.3647C38.3898 40.806 18.0484 42.1664 0 40.0169C0 40.0169 10.6035 44.6697 22.347 44.725C33.502 44.7774 48.4081 40.3309 45.2725 29.7823C44.056 25.6908 36.4277 23.8449 30.2276 24.8698C22.2562 26.1878 17.8439 31.5224 17.8439 31.5224Z" fill="#169E49"/>
</g>
<path fill-rule="evenodd" clip-rule="evenodd" d="M24.8033 19.3433C24.8033 19.3433 27.9758 38.5842 20.4024 38.5842C12.829 38.5842 16.0016 17.501 19.8907 0.000183105C19.8907 0.000183105 14.427 11.499 12.1903 23.0276C10.0656 33.9788 11.0926 48.7111 22.0398 47.5904C26.2864 47.1559 28.752 39.8516 28.897 33.5693C29.0836 25.4917 24.8033 19.3433 24.8033 19.3433Z" fill="#7DC46E"/>
<path fill-rule="evenodd" clip-rule="evenodd" d="M57.9788 19.2393V20.263L58.0609 20.2699C58.3351 20.2935 58.6118 20.3251 58.883 20.3653C59.1489 20.4044 59.4148 20.464 59.6718 20.5415C59.933 20.6262 60.144 20.7285 60.299 20.8458C60.4404 20.9527 60.5093 21.0805 60.5093 21.2359C60.5093 21.4038 60.4874 21.6292 60.4444 21.9055C60.4009 22.1807 60.247 22.6838 59.9872 23.4011C59.7138 24.1558 59.1773 25.5524 58.3921 27.5519C57.6396 29.4692 56.9636 31.1604 56.3808 32.584C55.1963 29.4154 54.2794 26.9637 53.6303 25.2302C52.9668 23.4578 52.487 22.1796 52.1924 21.3995C52.1687 21.3288 52.1411 21.2348 52.1102 21.1167C52.0801 21.0051 52.065 20.9079 52.065 20.8282C52.065 20.6535 52.2491 20.5254 52.6115 20.4482C53.0167 20.3614 53.5226 20.3014 54.1151 20.2702L54.2001 20.2656V19.2393H46.978V20.2641L47.0616 20.2702C47.2795 20.2856 47.5199 20.3269 47.7772 20.3933C48.0309 20.4586 48.2645 20.5577 48.4708 20.6879C48.726 20.8501 48.933 21.0238 49.0866 21.2043C49.2395 21.3837 49.3633 21.5947 49.4548 21.8315C49.8366 22.8331 50.5503 24.7353 51.6373 27.6477C52.7088 30.5184 53.8201 33.5008 54.9716 36.5948L54.9932 36.6532H56.1124L56.1347 36.5962C57.2621 33.6978 58.3756 30.8676 59.4446 28.1831C60.5118 25.504 61.3225 23.5048 61.8539 22.2439C62.0114 21.8893 62.1729 21.5782 62.334 21.3191C62.4901 21.0683 62.7001 20.8602 62.9588 20.7001C63.1429 20.5853 63.3811 20.4859 63.6675 20.4048C63.9557 20.323 64.2029 20.2778 64.4021 20.2702L64.4885 20.267V19.2393H57.9788Z" fill="white"/>
<path fill-rule="evenodd" clip-rule="evenodd" d="M80.7631 31.3084C80.6529 31.6697 80.3949 32.2435 79.9955 33.0143C79.5979 33.7826 79.2136 34.3629 78.8529 34.7389C78.7291 34.8699 78.5117 34.9765 78.2059 35.0554C77.8876 35.138 77.5751 35.1957 77.2772 35.227C76.9866 35.2585 76.6224 35.2747 76.1953 35.2747H75.1522C74.4944 35.2747 73.9816 35.2528 73.6278 35.2094C73.2851 35.1677 73.0127 35.0748 72.8183 34.9323C72.6288 34.7942 72.4992 34.5861 72.4329 34.3133C72.3625 34.0255 72.3274 33.6258 72.3274 33.1248V28.1139H74.1564C74.6649 28.1139 75.0779 28.161 75.3836 28.2539C75.6804 28.344 75.9499 28.5399 76.1853 28.8356C76.3299 29.0182 76.472 29.3215 76.6076 29.7374C76.7447 30.1558 76.8305 30.5588 76.8617 30.9345L76.8685 31.0166H77.9404V24.1685H76.871L76.8617 24.2478C76.8229 24.584 76.7415 24.9475 76.6198 25.3282C76.4993 25.7047 76.3525 26.0083 76.1853 26.2297C75.9797 26.488 75.74 26.6743 75.4719 26.7837C75.2003 26.895 74.7578 26.9509 74.1564 26.9509H72.3274V20.3661H74.9121C75.347 20.3661 75.741 20.374 76.0834 20.3898C76.4232 20.4056 76.7192 20.4297 76.9633 20.4612C77.4165 20.5215 77.9074 20.8875 78.4216 21.5489C78.943 22.2196 79.2868 22.8605 79.4429 23.4533L79.4604 23.5204H80.5187V19.2394H67.1704V20.2639L67.2537 20.27C67.4639 20.2854 67.7521 20.3335 68.1106 20.4121C68.4658 20.49 68.7518 20.5804 68.9621 20.6819C69.2198 20.7996 69.3902 20.9514 69.4684 21.1337C69.5513 21.3253 69.5933 21.5493 69.5933 21.7994V34.0331C69.5933 34.313 69.5463 34.5452 69.4534 34.7231C69.3629 34.8965 69.1975 35.0404 68.9614 35.1509C68.885 35.1868 68.6923 35.2424 68.2082 35.3052C67.8124 35.3565 67.4912 35.3906 67.254 35.4067L67.1704 35.4125V36.4373H81.4728L81.8084 31.2449H80.7824L80.7631 31.3084Z" fill="white"/>
<path fill-rule="evenodd" clip-rule="evenodd" d="M99.0733 31.5917C98.8857 32.1092 98.6391 32.5947 98.3409 33.035C98.0424 33.4757 97.6925 33.8733 97.3028 34.2163C96.9138 34.5436 96.447 34.8109 95.9159 35.0105C95.3855 35.2096 94.7956 35.3104 94.1622 35.3104C93.3186 35.3104 92.5449 35.1203 91.8631 34.7456C91.1788 34.3696 90.5777 33.8406 90.0771 33.1746C89.5744 32.4978 89.1822 31.7015 88.9109 30.807C88.6392 29.9109 88.5014 28.9123 88.5014 27.8386C88.5014 26.6203 88.6335 25.5011 88.8937 24.5125C89.1531 23.5278 89.5155 22.7057 89.9698 22.0695C90.446 21.4124 91.0176 20.9086 91.6689 20.5724C92.3195 20.2365 93.0333 20.0664 93.7904 20.0664C94.45 20.0664 95.0435 20.2175 95.5538 20.5157C96.0669 20.8153 96.5169 21.2366 96.8919 21.768C97.2285 22.2385 97.5271 22.8227 97.779 23.5038C98.032 24.1874 98.2243 24.8311 98.3506 25.4168L98.3657 25.4874H99.5133L99.4035 19.3275L99.4017 19.2393H98.3033L97.8325 20.0212C97.2361 19.6656 96.6023 19.3835 95.9485 19.1829C95.2635 18.9737 94.4887 18.8675 93.6455 18.8675C92.5115 18.8675 91.431 19.0882 90.4338 19.5231C89.4369 19.958 88.5603 20.5828 87.8275 21.3808C87.0876 22.1872 86.5009 23.1596 86.0846 24.2724C85.6673 25.3848 85.4556 26.6411 85.4556 28.0062C85.4556 29.3719 85.6712 30.6168 86.0968 31.7055C86.5228 32.796 87.1012 33.7326 87.8171 34.4894C88.5405 35.2466 89.3831 35.8347 90.3211 36.2377C91.2595 36.641 92.2531 36.8456 93.2748 36.8456C94.8501 36.8456 96.2295 36.4753 97.3739 35.7457C98.5189 35.0151 99.4498 33.7843 100.141 32.088L100.172 32.0098L99.1074 31.4988L99.0733 31.5917Z" fill="white"/>
<path fill-rule="evenodd" clip-rule="evenodd" d="M102.804 24.0362H103.802L103.82 23.9702C103.89 23.7122 104.018 23.3799 104.199 22.9819C104.38 22.5854 104.591 22.2043 104.828 21.8494C105.063 21.4956 105.324 21.1755 105.602 20.8974C105.87 20.6297 106.129 20.4786 106.37 20.4492C106.702 20.4101 107.055 20.3839 107.418 20.372C107.785 20.3602 108.092 20.3541 108.339 20.3541H108.945V33.9851C108.945 34.2941 108.887 34.5424 108.773 34.7229C108.66 34.9009 108.479 35.0405 108.233 35.1374C108.065 35.2059 107.753 35.2644 107.304 35.3111C106.851 35.3584 106.507 35.3907 106.282 35.4069L106.199 35.413V36.4375H114.414V35.4094L114.327 35.4065C114.077 35.3986 113.721 35.347 113.269 35.2526C112.816 35.1582 112.516 35.0828 112.381 35.0301C112.122 34.9192 111.939 34.7617 111.837 34.5622C111.733 34.3565 111.679 34.1258 111.679 33.8771V20.3541H112.287C112.607 20.3541 112.958 20.3623 113.329 20.3781C113.7 20.3939 114.013 20.418 114.257 20.4488C114.501 20.4858 114.761 20.6372 115.031 20.8985C115.308 21.1676 115.569 21.4873 115.805 21.849C116.034 22.1946 116.245 22.5682 116.431 22.9597C116.616 23.349 116.746 23.6885 116.816 23.9684L116.832 24.0362H117.82V19.2392H102.804V24.0362Z" fill="white"/>
<path fill-rule="evenodd" clip-rule="evenodd" d="M172.051 19.2393V20.2648L172.136 20.2702C172.392 20.2856 172.775 20.3653 173.274 20.5067C173.771 20.6474 174.131 20.7927 174.343 20.9362C174.564 21.0988 174.738 21.4383 174.861 21.946C174.986 22.4681 175.05 23.2296 175.05 24.2096V32.0306L165.646 19.2759L165.619 19.2393H160.622V20.2656L160.707 20.2702C160.999 20.2856 161.392 20.3865 161.873 20.5699C162.352 20.7529 162.735 20.975 163.013 21.2298C163.217 21.4189 163.383 21.693 163.505 22.0447C163.629 22.401 163.692 22.7624 163.692 23.1191V31.5024C163.692 32.6026 163.64 33.3888 163.538 33.8395C163.44 34.2763 163.257 34.6042 162.991 34.817C162.911 34.8874 162.685 35.0069 162.067 35.1759C161.564 35.3133 161.203 35.3912 160.993 35.4066L160.909 35.4131V36.4376H168.069V35.4102L167.983 35.4066C167.806 35.3987 167.429 35.3191 166.863 35.1698C166.305 35.0223 165.935 34.864 165.76 34.6972C165.519 34.4869 165.337 34.1234 165.218 33.6167C165.096 33.0982 165.035 32.3424 165.035 31.3703V22.8629L175.214 36.6055H176.393V24.0542C176.393 23.193 176.443 22.4717 176.541 21.9112C176.636 21.3701 176.819 21.0026 177.083 20.8196C177.274 20.6972 177.6 20.5763 178.053 20.4593C178.508 20.3413 178.848 20.2778 179.065 20.2702L179.151 20.267V19.2393H172.051Z" fill="white"/>
<path fill-rule="evenodd" clip-rule="evenodd" d="M52.8493 43.9098V45.3889H54.1961C54.4369 45.3889 54.6238 45.3563 54.758 45.291C55.001 45.1708 55.123 44.9397 55.123 44.5988C55.123 44.3099 55.0049 44.1118 54.7692 44.0038C54.6375 43.9435 54.453 43.9123 54.2151 43.9098H52.8493ZM52.8493 41.7678V42.9911H54.1979C54.4387 42.9911 54.6339 42.9456 54.7842 42.8541C54.9346 42.7626 55.0099 42.5996 55.0099 42.366C55.0099 42.108 54.9106 41.9372 54.7121 41.8543C54.5406 41.7969 54.3217 41.7678 54.0561 41.7678H52.8493ZM55.8618 41.395C56.0316 41.6311 56.1163 41.9135 56.1163 42.2422C56.1163 42.581 56.0309 42.853 55.8593 43.059C55.7639 43.1745 55.6225 43.2797 55.4363 43.3751C55.7194 43.4781 55.9333 43.641 56.0772 43.8646C56.221 44.0878 56.2935 44.3587 56.2935 44.6774C56.2935 45.0064 56.211 45.301 56.0463 45.5623C55.9419 45.7352 55.8105 45.8806 55.6534 45.9986C55.4764 46.1343 55.2672 46.2268 55.0265 46.2774C54.786 46.3273 54.5244 46.3524 54.2427 46.3524H51.7427V40.8044H54.4236C55.1004 40.8144 55.5798 41.0114 55.8618 41.395Z" fill="white"/>
<mask id="mask1_926:3043" style="mask-type:alpha" maskUnits="userSpaceOnUse" x="0" y="0" width="180" height="48">
<path d="M0 47.6509H179.151V0H0V47.6509Z" fill="white"/>
</mask>
<g mask="url(#mask1_926:3043)">
<mask id="mask2_926:3043" style="mask-type:alpha" maskUnits="userSpaceOnUse" x="0" y="24" width="46" height="21">
<path d="M0 24.6143V44.7664H45.7384V24.6143H0H0Z" fill="white"/>
</mask>
<g mask="url(#mask2_926:3043)">
<path fill-rule="evenodd" clip-rule="evenodd" d="M17.8602 31.5513C17.8602 31.5513 35.6073 25.9468 37.0163 33.3953C38.425 40.8434 18.0649 42.2051 0 40.0536C0 40.0536 10.6132 44.7106 22.3675 44.7659C33.5327 44.8184 48.4524 40.3679 45.3139 29.8097C44.0963 25.7144 36.461 23.8668 30.2552 24.8926C22.2766 26.2118 17.8602 31.5513 17.8602 31.5513Z" fill="#169E49"/>
</g>
<path fill-rule="evenodd" clip-rule="evenodd" d="M58.0318 19.257V20.2817L58.114 20.2885C58.3884 20.3122 58.6654 20.3438 58.9369 20.384C59.203 20.4232 59.4692 20.4828 59.7264 20.5604C59.9878 20.6452 60.199 20.7475 60.3542 20.865C60.4957 20.972 60.5647 21.0999 60.5647 21.2554C60.5647 21.4235 60.5428 21.649 60.4997 21.9256C60.4562 22.2011 60.3021 22.7047 60.0421 23.4226C59.7684 24.178 59.2314 25.5759 58.4456 27.5772C57.6924 29.4962 57.0157 31.189 56.4324 32.6139C55.2468 29.4424 54.3291 26.9885 53.6793 25.2533C53.0152 23.4794 52.535 22.2 52.2401 21.4192C52.2164 21.3484 52.1888 21.2543 52.1579 21.1361C52.1277 21.0244 52.1126 20.9271 52.1126 20.8474C52.1126 20.6725 52.2969 20.5442 52.6596 20.467C53.0652 20.3801 53.5716 20.3201 54.1646 20.2889L54.2497 20.2842V19.257H47.021V20.2828L47.1047 20.2889C47.3227 20.3043 47.5633 20.3456 47.8209 20.4121C48.0748 20.4774 48.3086 20.5766 48.5152 20.7069C48.7705 20.8693 48.9778 21.0431 49.1315 21.2238C49.2845 21.4034 49.4084 21.6146 49.5 21.8516C49.8822 22.8541 50.5966 24.758 51.6845 27.6731C52.757 30.5465 53.8693 33.5315 55.0219 36.6283L55.0435 36.6869H56.1637L56.186 36.6298C57.3145 33.7287 58.429 30.8959 59.499 28.209C60.5672 25.5274 61.3786 23.5264 61.9105 22.2643C62.0682 21.9094 62.2298 21.598 62.3911 21.3387C62.5473 21.0877 62.7574 20.8793 63.0164 20.7191C63.2006 20.6042 63.4391 20.5047 63.7257 20.4235C64.0142 20.3417 64.2616 20.2964 64.461 20.2889L64.5475 20.2856V19.257H58.0318Z" fill="white"/>
<path fill-rule="evenodd" clip-rule="evenodd" d="M80.8365 31.3371C80.7263 31.6988 80.468 32.2731 80.0683 33.0446C79.6703 33.8136 79.2856 34.3944 78.9247 34.7708C78.8007 34.9019 78.5831 35.0086 78.2771 35.0876C77.9585 35.1702 77.6456 35.228 77.3475 35.2593C77.0566 35.2909 76.692 35.307 76.2646 35.307H75.2205C74.5622 35.307 74.0489 35.2851 73.6948 35.2417C73.3517 35.2 73.0791 35.107 72.8845 34.9644C72.6948 34.8261 72.5652 34.6178 72.4987 34.3448C72.4283 34.0567 72.3931 33.6566 72.3931 33.1552V28.1397H74.2238C74.7328 28.1397 75.1462 28.1868 75.4522 28.2798C75.7492 28.37 76.019 28.5661 76.2546 28.862C76.3993 29.0449 76.5416 29.3484 76.6773 29.7646C76.8145 30.1834 76.9004 30.5868 76.9316 30.9628L76.9384 31.0451H78.0113V24.1906H76.941L76.9316 24.27C76.8928 24.6066 76.8113 24.9704 76.6895 25.3515C76.5688 25.7283 76.4219 26.0321 76.2546 26.2537C76.0488 26.5123 75.8088 26.6987 75.5405 26.8083C75.2686 26.9196 74.8258 26.9757 74.2238 26.9757H72.3931V20.3849H74.9802C75.4155 20.3849 75.8099 20.3928 76.1526 20.4086C76.4927 20.4244 76.789 20.4484 77.0333 20.48C77.4869 20.5404 77.9782 20.9067 78.4929 21.5687C79.0148 22.24 79.3589 22.8815 79.5151 23.4748L79.5327 23.542H80.5919V19.257H67.2314V20.2825L67.3148 20.2886C67.5253 20.304 67.8137 20.3522 68.1725 20.4308C68.5281 20.5088 68.8143 20.5993 69.0248 20.7009C69.2827 20.8187 69.4533 20.9707 69.5316 21.1531C69.6146 21.3449 69.6566 21.569 69.6566 21.8194V34.0643C69.6566 34.3444 69.6095 34.5768 69.5165 34.755C69.426 34.9285 69.2604 35.0725 69.0241 35.1831C68.9476 35.219 68.7547 35.2747 68.2702 35.3376C67.874 35.3889 67.5525 35.423 67.3151 35.4392L67.2314 35.445V36.4707H81.547L81.8828 31.2735H80.8559L80.8365 31.3371Z" fill="white"/>
<path fill-rule="evenodd" clip-rule="evenodd" d="M99.1639 31.6207C98.9761 32.1386 98.7293 32.6246 98.4309 33.0653C98.132 33.5063 97.7818 33.9043 97.3918 34.2477C97.0024 34.5752 96.5351 34.8428 96.0036 35.0425C95.4727 35.2419 94.8822 35.3428 94.2483 35.3428C93.4039 35.3428 92.6295 35.1524 91.9471 34.7775C91.2621 34.401 90.6605 33.8716 90.1595 33.205C89.6563 32.5276 89.2637 31.7306 88.9922 30.8352C88.7203 29.9383 88.5823 28.9388 88.5823 27.8641C88.5823 26.6447 88.7145 25.5245 88.9749 24.5349C89.2346 23.5494 89.5974 22.7265 90.0521 22.0897C90.5287 21.432 91.1009 20.9278 91.7528 20.5912C92.4039 20.255 93.1183 20.0848 93.8762 20.0848C94.5363 20.0848 95.1304 20.236 95.6412 20.5345C96.1548 20.8344 96.6052 21.2561 96.9805 21.788C97.3174 22.2589 97.6162 22.8436 97.8684 23.5253C98.1216 24.2095 98.3141 24.8539 98.4406 25.4401L98.4556 25.5108H99.6043L99.4944 19.3453L99.4926 19.2569H98.3931L97.9219 20.0395C97.325 19.6836 96.6907 19.4013 96.0363 19.2005C95.3506 18.9911 94.5751 18.8848 93.7311 18.8848C92.5961 18.8848 91.5146 19.1057 90.5165 19.541C89.5187 19.9763 88.6413 20.6016 87.9078 21.4004C87.1672 22.2075 86.58 23.1809 86.1633 24.2947C85.7456 25.4081 85.5337 26.6655 85.5337 28.0318C85.5337 29.3989 85.7496 30.6448 86.1755 31.7346C86.6019 32.8261 87.1809 33.7635 87.8974 34.521C88.6215 35.2789 89.4648 35.8675 90.4037 36.2709C91.3429 36.6746 92.3375 36.8793 93.3601 36.8793C94.9368 36.8793 96.3175 36.5087 97.4629 35.7785C98.609 35.0472 99.5407 33.8152 100.232 32.1174L100.264 32.0391L99.198 31.5277L99.1639 31.6207Z" fill="white"/>
<path fill-rule="evenodd" clip-rule="evenodd" d="M102.898 24.0583H103.897L103.915 23.9922C103.986 23.7339 104.114 23.4013 104.295 23.003C104.476 22.6061 104.687 22.2247 104.924 21.8695C105.16 21.5153 105.421 21.1949 105.699 20.9166C105.967 20.6486 106.226 20.4974 106.468 20.468C106.8 20.4288 107.153 20.4026 107.517 20.3907C107.884 20.3789 108.191 20.3728 108.439 20.3728H109.045V34.0163C109.045 34.3256 108.987 34.5741 108.873 34.7548C108.76 34.9329 108.578 35.0726 108.332 35.1696C108.164 35.2382 107.852 35.2968 107.402 35.3435C106.949 35.3909 106.604 35.4232 106.379 35.4394L106.296 35.4455V36.4709H114.519V35.4419L114.431 35.439C114.181 35.4311 113.825 35.3794 113.373 35.2849C112.92 35.1904 112.619 35.115 112.484 35.0622C112.224 34.9512 112.042 34.7936 111.94 34.5939C111.835 34.3881 111.781 34.1571 111.781 33.9082V20.3728H112.39C112.71 20.3728 113.061 20.381 113.433 20.3968C113.804 20.4127 114.117 20.4367 114.361 20.4676C114.606 20.5046 114.866 20.6562 115.137 20.9176C115.414 21.187 115.675 21.5071 115.912 21.8691C116.141 22.215 116.351 22.5889 116.538 22.9807C116.723 23.3704 116.853 23.7102 116.923 23.9904L116.94 24.0583H117.928V19.2568H102.898V24.0583Z" fill="white"/>
<path fill-rule="evenodd" clip-rule="evenodd" d="M172.209 19.257V20.2835L172.293 20.2889C172.55 20.3043 172.933 20.384 173.433 20.5256C173.93 20.6664 174.29 20.8118 174.503 20.9555C174.724 21.1182 174.898 21.458 175.021 21.9662C175.146 22.4888 175.21 23.251 175.21 24.2319V32.06L165.797 19.2936L165.77 19.257H160.769V20.2842L160.854 20.2889C161.147 20.3043 161.54 20.4052 162.021 20.5888C162.5 20.7719 162.884 20.9943 163.162 21.2493C163.367 21.4386 163.532 21.713 163.655 22.065C163.779 22.4216 163.842 22.7833 163.842 23.1403V31.5313C163.842 32.6325 163.79 33.4195 163.688 33.8706C163.589 34.3077 163.406 34.636 163.14 34.849C163.06 34.9194 162.834 35.039 162.215 35.2082C161.711 35.3457 161.35 35.4237 161.14 35.4391L161.057 35.4456V36.471H168.223V35.4427L168.137 35.4391C167.96 35.4312 167.582 35.3515 167.016 35.2021C166.457 35.0544 166.086 34.896 165.912 34.729C165.671 34.5186 165.488 34.1547 165.37 33.6476C165.247 33.1286 165.186 32.3721 165.186 31.3991V22.8839L175.375 36.6391H176.554V24.0763C176.554 23.2143 176.604 22.4924 176.703 21.9314C176.798 21.3897 176.981 21.0219 177.245 20.8388C177.436 20.7163 177.763 20.5952 178.216 20.4781C178.671 20.36 179.012 20.2964 179.229 20.2889L179.315 20.2856V19.257H172.209Z" fill="white"/>
<path fill-rule="evenodd" clip-rule="evenodd" d="M52.8977 43.95V45.4305H54.2457C54.4867 45.4305 54.6738 45.3978 54.8082 45.3325C55.0513 45.2121 55.1734 44.9808 55.1734 44.6396C55.1734 44.3505 55.0553 44.1522 54.8193 44.0441C54.6875 43.9838 54.5029 43.9525 54.2647 43.95H52.8977ZM52.8977 41.8061V43.0305H54.2475C54.4885 43.0305 54.6839 42.9849 54.8344 42.8933C54.9849 42.8017 55.0603 42.6387 55.0603 42.4049C55.0603 42.1466 54.9608 41.9756 54.7622 41.8927C54.5905 41.8352 54.3714 41.8061 54.1056 41.8061H52.8977ZM55.913 41.4329C56.0829 41.6693 56.1676 41.9519 56.1676 42.2809C56.1676 42.62 56.0821 42.8923 55.9105 43.0984C55.8149 43.2141 55.6734 43.3193 55.487 43.4148C55.7704 43.5179 55.9845 43.681 56.1285 43.9048C56.2725 44.1282 56.3451 44.3993 56.3451 44.7183C56.3451 45.0476 56.2625 45.3425 56.0976 45.604C55.9931 45.7771 55.8616 45.9226 55.7043 46.0408C55.5272 46.1765 55.3178 46.2692 55.0768 46.3198C54.8362 46.3698 54.5743 46.3949 54.2924 46.3949H51.79V40.8417H54.4734C55.1508 40.8518 55.6307 41.049 55.913 41.4329Z" fill="white"/>
<mask id="mask3_926:3043" style="mask-type:alpha" maskUnits="userSpaceOnUse" x="0" y="0" width="180" height="48">
<path d="M0 47.6945H179.315V0H0V47.6945Z" fill="white"/>
</mask>
<g mask="url(#mask3_926:3043)">
<path fill-rule="evenodd" clip-rule="evenodd" d="M63.3799 46.395H64.5328V40.8419H63.3799V46.395Z" fill="white"/>
<path fill-rule="evenodd" clip-rule="evenodd" d="M75.3255 45.0576C75.5956 44.7182 75.731 44.2362 75.731 43.6105C75.731 42.988 75.5956 42.5064 75.3255 42.1663C75.0558 41.8254 74.6909 41.6555 74.2311 41.6555C73.7718 41.6555 73.4047 41.825 73.131 42.1641C72.8573 42.5032 72.7205 42.9852 72.7205 43.6105C72.7205 44.2362 72.8573 44.7182 73.131 45.0576C73.4047 45.3967 73.7718 45.5662 74.2311 45.5662C74.6909 45.5662 75.0558 45.3967 75.3255 45.0576ZM76.0511 45.9016C75.6315 46.3334 75.0249 46.5492 74.2311 46.5492C73.4377 46.5492 72.8311 46.3334 72.4116 45.9016C71.8491 45.3711 71.5679 44.6079 71.5679 43.6105C71.5679 42.5933 71.8491 41.8301 72.4116 41.32C72.8311 40.888 73.4377 40.6725 74.2311 40.6725C75.0249 40.6725 75.6315 40.888 76.0511 41.32C76.6107 41.8301 76.8908 42.5933 76.8908 43.6105C76.8908 44.6079 76.6107 45.3711 76.0511 45.9016Z" fill="white"/>
<path fill-rule="evenodd" clip-rule="evenodd" d="M85.034 44.6807C85.0699 44.9342 85.1403 45.1239 85.2455 45.2496C85.4377 45.478 85.7674 45.5926 86.234 45.5926C86.5137 45.5926 86.7407 45.5621 86.9149 45.5021C87.2457 45.3864 87.4113 45.1716 87.4113 44.8581C87.4113 44.6745 87.3301 44.5327 87.1678 44.4321C87.0058 44.3341 86.749 44.2471 86.3974 44.1721L85.7958 44.0403C85.2049 43.9095 84.7991 43.768 84.5782 43.6146C84.2036 43.3582 84.0168 42.9577 84.0168 42.4125C84.0168 41.9157 84.1996 41.5023 84.566 41.1733C84.932 40.8443 85.4696 40.6795 86.1794 40.6795C86.7713 40.6795 87.2766 40.8346 87.6951 41.145C88.1135 41.4549 88.333 41.9057 88.3531 42.4955H87.2378C87.217 42.1618 87.068 41.9244 86.79 41.7836C86.6046 41.6905 86.374 41.6442 86.0982 41.6442C85.7922 41.6442 85.5472 41.7042 85.3644 41.8252C85.1816 41.9456 85.0904 42.1137 85.0904 42.3299C85.0904 42.5281 85.1805 42.6765 85.3608 42.7742C85.4765 42.8395 85.7225 42.9164 86.0989 43.004L87.073 43.2343C87.5 43.3345 87.8201 43.4692 88.0334 43.6369C88.3646 43.8984 88.5301 44.2766 88.5301 44.7712C88.5301 45.2783 88.334 45.7 87.9418 46.0351C87.5492 46.3706 86.9954 46.5383 86.2796 46.5383C85.5487 46.5383 84.9736 46.3731 84.5545 46.0426C84.1357 45.7122 83.9263 45.2586 83.9263 44.6807H85.034Z" fill="white"/>
<path fill-rule="evenodd" clip-rule="evenodd" d="M99.3226 45.0576C99.5927 44.7182 99.7281 44.2362 99.7281 43.6105C99.7281 42.988 99.5927 42.5064 99.3226 42.1663C99.0529 41.8254 98.6879 41.6555 98.2282 41.6555C97.7688 41.6555 97.4017 41.825 97.1281 42.1641C96.8544 42.5032 96.7175 42.9852 96.7175 43.6105C96.7175 44.2362 96.8544 44.7182 97.1281 45.0576C97.4017 45.3967 97.7688 45.5662 98.2282 45.5662C98.6879 45.5662 99.0529 45.3967 99.3226 45.0576ZM100.048 45.9016C99.6286 46.3334 99.022 46.5492 98.2282 46.5492C97.4348 46.5492 96.8281 46.3334 96.4086 45.9016C95.8462 45.3711 95.5649 44.6079 95.5649 43.6105C95.5649 42.5933 95.8462 41.8301 96.4086 41.32C96.8281 40.888 97.4348 40.6725 98.2282 40.6725C99.022 40.6725 99.6286 40.888 100.048 41.32C100.608 41.8301 100.888 42.5933 100.888 43.6105C100.888 44.6079 100.608 45.3711 100.048 45.9016Z" fill="white"/>
<path fill-rule="evenodd" clip-rule="evenodd" d="M107.923 40.8416H109.083V45.3966H111.856V46.3947H107.923V40.8416Z" fill="white"/>
<path fill-rule="evenodd" clip-rule="evenodd" d="M118.891 40.8416H120.07V44.2519C120.07 44.6337 120.115 44.9124 120.205 45.0881C120.346 45.3995 120.651 45.5546 121.121 45.5546C121.589 45.5546 121.893 45.3995 122.034 45.0881C122.124 44.9124 122.169 44.6337 122.169 44.2519V40.8416H123.348V44.2548C123.348 44.8449 123.256 45.305 123.074 45.6337C122.732 46.2367 122.082 46.5381 121.121 46.5381C120.161 46.5381 119.509 46.2367 119.166 45.6337C118.982 45.305 118.891 44.8449 118.891 44.2548V40.8416Z" fill="white"/>
<path fill-rule="evenodd" clip-rule="evenodd" d="M134.881 40.8416V41.825H133.219V46.3947H132.052V41.825H130.383V40.8416H134.881Z" fill="white"/>
<path fill-rule="evenodd" clip-rule="evenodd" d="M141.916 46.395H143.069V40.8419H141.916V46.395Z" fill="white"/>
<path fill-rule="evenodd" clip-rule="evenodd" d="M153.862 45.0576C154.132 44.7182 154.267 44.2362 154.267 43.6105C154.267 42.988 154.132 42.5064 153.862 42.1663C153.592 41.8254 153.227 41.6555 152.767 41.6555C152.308 41.6555 151.941 41.825 151.667 42.1641C151.393 42.5032 151.257 42.9852 151.257 43.6105C151.257 44.2362 151.393 44.7182 151.667 45.0576C151.941 45.3967 152.308 45.5662 152.767 45.5662C153.227 45.5662 153.592 45.3967 153.862 45.0576ZM154.587 45.9016C154.168 46.3334 153.561 46.5492 152.767 46.5492C151.974 46.5492 151.367 46.3334 150.948 45.9016C150.385 45.3711 150.104 44.6079 150.104 43.6105C150.104 42.5933 150.385 41.8301 150.948 41.32C151.367 40.888 151.974 40.6725 152.767 40.6725C153.561 40.6725 154.168 40.888 154.587 41.32C155.147 41.8301 155.427 42.5933 155.427 43.6105C155.427 44.6079 155.147 45.3711 154.587 45.9016Z" fill="white"/>
<path fill-rule="evenodd" clip-rule="evenodd" d="M162.462 40.8416H163.678L165.883 44.7138V40.8416H166.964V46.3947H165.804L163.543 42.4546V46.3947H162.462V40.8416Z" fill="white"/>
<path fill-rule="evenodd" clip-rule="evenodd" d="M175.107 44.6807C175.143 44.9342 175.213 45.1239 175.318 45.2496C175.51 45.478 175.84 45.5926 176.307 45.5926C176.587 45.5926 176.814 45.5621 176.988 45.5021C177.318 45.3864 177.484 45.1716 177.484 44.8581C177.484 44.6745 177.403 44.5327 177.241 44.4321C177.079 44.3341 176.822 44.2471 176.47 44.1721L175.869 44.0403C175.278 43.9095 174.872 43.768 174.651 43.6146C174.276 43.3582 174.09 42.9577 174.09 42.4125C174.09 41.9157 174.272 41.5023 174.639 41.1733C175.005 40.8443 175.542 40.6795 176.252 40.6795C176.844 40.6795 177.349 40.8346 177.768 41.145C178.186 41.4549 178.406 41.9057 178.426 42.4955H177.311C177.29 42.1618 177.141 41.9244 176.863 41.7836C176.677 41.6905 176.447 41.6442 176.171 41.6442C175.865 41.6442 175.62 41.7042 175.437 41.8252C175.254 41.9456 175.163 42.1137 175.163 42.3299C175.163 42.5281 175.253 42.6765 175.434 42.7742C175.549 42.8395 175.795 42.9164 176.172 43.004L177.146 43.2343C177.573 43.3345 177.893 43.4692 178.106 43.6369C178.437 43.8984 178.603 44.2766 178.603 44.7712C178.603 45.2783 178.407 45.7 178.015 46.0351C177.622 46.3706 177.068 46.5383 176.352 46.5383C175.621 46.5383 175.046 46.3731 174.627 46.0426C174.208 45.7122 173.999 45.2586 173.999 44.6807H175.107Z" fill="white"/>
<path fill-rule="evenodd" clip-rule="evenodd" d="M153.976 30.9476C153.775 31.8545 153.449 32.677 153.009 33.3932L153.008 33.3939C152.586 34.0975 152.031 34.6524 151.359 35.0429C150.688 35.4333 149.923 35.6312 149.088 35.6312C148.196 35.6312 147.42 35.4358 146.781 35.0497C146.14 34.6628 145.601 34.1176 145.178 33.4284C144.737 32.7204 144.41 31.8979 144.205 30.9835C144 30.0669 143.895 29.0235 143.895 27.8817C143.895 26.8519 143.994 25.8567 144.187 24.9232C144.381 23.9922 144.678 23.169 145.072 22.4768C145.487 21.756 146.03 21.1727 146.688 20.742C147.342 20.3139 148.15 20.0966 149.088 20.0966C149.924 20.0966 150.676 20.2845 151.324 20.6551C151.973 21.0261 152.52 21.5516 152.95 22.2161C153.382 22.8924 153.715 23.7232 153.94 24.685C154.165 25.6498 154.28 26.7251 154.28 27.8817C154.28 29.0066 154.178 30.0378 153.976 30.9476ZM156.722 24.1703C156.296 23.0562 155.696 22.0907 154.939 21.3016C154.206 20.528 153.323 19.9192 152.316 19.4921C151.309 19.0651 150.223 18.8485 149.088 18.8485C147.993 18.8485 146.929 19.0611 145.926 19.4799C144.922 19.8991 144.03 20.5118 143.272 21.3013C142.508 22.0986 141.9 23.0555 141.465 24.1452C141.031 25.2349 140.811 26.492 140.811 27.8817C140.811 29.151 141.021 30.3589 141.434 31.4723C141.849 32.5868 142.426 33.548 143.151 34.3288C143.876 35.1265 144.757 35.758 145.767 36.2051C146.78 36.6523 147.897 36.8793 149.088 36.8793C150.206 36.8793 151.276 36.6667 152.268 36.2479C153.259 35.8287 154.141 35.2239 154.889 34.4513C155.663 33.6705 156.275 32.7111 156.71 31.6002C157.144 30.4903 157.364 29.2393 157.364 27.8817C157.364 26.5323 157.148 25.2834 156.722 24.1703Z" fill="white"/>
<path fill-rule="evenodd" clip-rule="evenodd" d="M130.64 26.5048C129.924 27.1919 129.016 27.5399 127.94 27.5399H126.458V20.4208H128.409C129.459 20.4208 130.282 20.716 130.854 21.2986C131.426 21.8819 131.716 22.6854 131.716 23.6867C131.716 24.8698 131.354 25.8181 130.64 26.5048ZM138.124 35.4392C137.92 35.4313 137.662 35.3993 137.356 35.3444C137.053 35.2902 136.799 35.2122 136.601 35.1127C136.328 34.9726 136.048 34.788 135.77 34.5646C135.493 34.3423 135.177 33.9907 134.831 33.5187C134.023 32.4304 133.341 31.5063 132.785 30.7463C132.249 30.0143 131.571 29.1041 130.767 28.0392C131.33 27.8696 131.854 27.6646 132.326 27.4279C132.836 27.1732 133.28 26.8672 133.644 26.5188C134.044 26.1435 134.35 25.6923 134.555 25.178C134.758 24.6655 134.861 24.0689 134.861 23.4044C134.861 22.6634 134.708 22.0205 134.405 21.4929C134.103 20.9667 133.694 20.5343 133.187 20.2074C132.668 19.8752 132.081 19.6309 131.442 19.4812C130.807 19.3325 130.117 19.257 129.393 19.257H121.44V20.2828L121.524 20.2886C121.743 20.3044 122.014 20.3421 122.33 20.4014C122.644 20.4599 122.902 20.5256 123.095 20.595C123.365 20.6973 123.537 20.845 123.607 21.0346C123.683 21.2397 123.721 21.4796 123.721 21.7476V34.0643C123.721 34.3599 123.671 34.6041 123.57 34.7898C123.472 34.9708 123.311 35.1109 123.09 35.2068C122.955 35.2668 122.708 35.3167 122.355 35.3555C121.992 35.3954 121.714 35.4234 121.523 35.4392L121.44 35.4464V36.4711H128.822V35.4417L128.736 35.4392C128.492 35.4313 128.189 35.4029 127.833 35.3559C127.481 35.3092 127.234 35.2582 127.097 35.205C126.833 35.1027 126.661 34.9558 126.583 34.7683C126.5 34.5682 126.458 34.3315 126.458 34.0643V28.7521H128.069C129.011 29.9625 129.899 31.1572 130.707 32.3033C131.522 33.4573 132.448 34.8455 133.458 36.4294L133.485 36.4711H138.21V35.4424L138.124 35.4392Z" fill="white"/>
<path fill-rule="evenodd" clip-rule="evenodd" d="M28.0156 39.9615C28.5644 37.9236 28.8747 35.705 28.9232 33.6002C29.11 25.5152 24.8258 19.3612 24.8258 19.3612C24.8258 19.3612 28.0012 38.6197 20.4209 38.6197C12.8405 38.6197 16.016 17.5172 19.9087 0C19.9087 0 14.4399 11.5093 12.2012 23.0488C11.0583 28.9396 10.8277 35.9226 12.5589 40.9492C18.3204 41.0771 23.7414 40.7765 28.0156 39.9615Z" fill="#7DC46E"/>
<path fill-rule="evenodd" clip-rule="evenodd" d="M22.3673 44.7659C19.4781 44.7523 16.6593 44.4599 14.0488 44.0278C15.7448 46.5542 18.3251 48.0164 22.0598 47.6342C23.6653 47.4697 25.0158 46.324 26.0833 44.6233C24.8193 44.7246 23.5716 44.7716 22.3673 44.7659Z" fill="#7DC46E"/>
</g>
</g>
</svg>
